<?xml version="1.0" standalone="no"?>
<!DOCTYPE svg PUBLIC "-//W3C//DTD SVG 20010904//EN"
 "http://www.w3.org/TR/2001/REC-SVG-20010904/DTD/svg10.dtd">
<svg version="1.0" xmlns="http://www.w3.org/2000/svg"
 width="608.000000pt" height="608.000000pt" viewBox="0 0 608.000000 608.000000"
 preserveAspectRatio="xMidYMid meet">
<metadata>
Created by potrace 1.14, written by Peter Selinger 2001-2017
</metadata>
<g transform="translate(0.000000,608.000000) scale(0.100000,-0.100000)"
fill="#000000" stroke="none">
<path d="M2908 5604 c-2 -1 -37 -5 -78 -9 -41 -4 -77 -8 -80 -10 -3 -2 -34 -6
-70 -9 -36 -4 -76 -9 -90 -11 -30 -6 -70 -12 -130 -20 -24 -4 -49 -9 -54 -12
-5 -4 -25 -8 -45 -10 -61 -7 -327 -101 -418 -148 -49 -25 -91 -45 -96 -45 -8
0 -89 -51 -97 -61 -3 -4 -43 -32 -90 -62 -185 -121 -308 -221 -460 -375 -170
-172 -220 -227 -220 -241 0 -5 -3 -11 -7 -13 -14 -6 -105 -150 -158 -252 -30
-56 -83 -168 -120 -251 -36 -82 -73 -165 -82 -183 -18 -42 -63 -202 -56 -202
3 0 1 -6 -5 -12 -14 -18 -39 -145 -52 -263 -16 -140 -19 -167 -25 -195 -16
-72 -1 -370 30 -590 8 -61 67 -284 100 -378 73 -212 270 -577 376 -697 15 -16
57 -66 94 -110 200 -237 401 -410 657 -568 140 -85 449 -219 533 -231 34 -4
127 -22 215 -40 82 -18 88 -19 215 -31 39 -4 84 -9 100 -10 216 -26 362 -26
520 0 69 11 91 15 111 19 12 2 38 7 58 10 31 5 55 10 141 31 11 3 36 8 55 11
45 8 49 9 85 23 17 6 33 10 36 9 3 -2 13 5 23 15 10 9 22 15 27 12 5 -4 9 -3
9 2 0 4 18 14 41 21 22 7 60 21 85 32 24 11 64 29 89 40 25 11 47 20 50 20 4
0 52 29 108 64 56 35 125 76 152 92 28 16 57 34 65 41 8 7 56 45 105 84 162
128 499 464 543 542 16 29 55 86 86 127 58 77 180 314 221 430 72 203 104 332
110 445 1 17 5 50 9 75 4 25 10 59 13 75 10 62 12 82 19 165 18 222 5 533 -25
639 -10 36 -22 84 -26 106 -4 22 -18 69 -32 105 -13 36 -34 90 -45 120 -24 66
-27 73 -70 175 -18 44 -54 118 -80 165 -27 47 -48 89 -48 93 0 12 -130 205
-158 235 -7 8 -19 26 -27 40 -14 27 -149 161 -352 350 -61 56 -152 129 -201
162 -101 66 -262 160 -274 160 -5 0 -82 35 -171 79 -174 84 -257 114 -450 160
-117 28 -150 34 -262 46 -27 3 -61 8 -75 11 -26 6 -347 13 -352 8z"/>
</g>
</svg>
