<svg aria-hidden="true" style="position: absolute; width: 0; height: 0; overflow: hidden;" version="1.1" xmlns="http://www.w3.org/2000/svg" xmlns:xlink="http://www.w3.org/1999/xlink">
<defs>
<symbol id="icon-Star--converted" viewBox="0 0 34 32">
<path d="M16.724 0.635c-0.697 0.166-1.272 0.597-1.626 1.177l-0.006 0.011c-0.081 0.15-0.63 1.772-1.223 3.604-0.591 1.831-1.152 3.478-1.248 3.66-0.357 0.638-0.966 1.098-1.69 1.248l-0.016 0.003c-0.185 0.034-1.726 0.057-3.904 0.057-3.897 0-3.99 0.007-4.519 0.318-0.399 0.259-0.719 0.608-0.938 1.019l-0.007 0.015c-0.167 0.319-0.266 0.698-0.266 1.099 0 0.661 0.267 1.26 0.699 1.695l-0-0c0.16 0.158 1.583 1.221 3.161 2.368 3.052 2.213 3.17 2.314 3.431 2.964 0.103 0.258 0.126 0.431 0.126 0.921v0.603l-1.115 3.387-1.118 3.39v0.574c-0.002 0.527 0.012 0.608 0.175 0.948 0.236 0.515 0.631 0.924 1.121 1.173l0.014 0.006c0.761 0.374 1.413 0.396 2.122 0.069 0.165-0.076 1.585-1.076 3.158-2.22 1.573-1.142 3.003-2.144 3.175-2.223 0.618-0.283 1.386-0.283 2.004 0 0.172 0.079 1.602 1.081 3.175 2.223 1.573 1.145 2.993 2.144 3.158 2.22 0.709 0.327 1.361 0.305 2.122-0.069 0.739-0.369 1.253-1.091 1.324-1.938l0.001-0.009c0.006-0.067 0.010-0.145 0.010-0.224 0-0.171-0.017-0.338-0.050-0.499l0.003 0.016c-0.744-2.522-1.132-3.703-1.532-4.879l0.393 1.329-1.073-3.274v-0.635c-0.002-0.603 0.007-0.65 0.19-1.024 0.108-0.217 0.3-0.502 0.431-0.635 0.133-0.135 1.516-1.172 3.079-2.304s2.949-2.171 3.079-2.309c0.396-0.428 0.639-1.003 0.639-1.635 0-0.13-0.010-0.258-0.030-0.382l0.002 0.014c-0.134-0.751-0.572-1.381-1.178-1.768l-0.011-0.006c-0.519-0.308-0.62-0.315-4.512-0.315-2.178 0-3.719-0.022-3.904-0.057-0.74-0.152-1.349-0.613-1.699-1.238l-0.007-0.013c-0.096-0.182-0.657-1.829-1.25-3.66-0.591-1.831-1.142-3.454-1.221-3.604-0.478-0.891-1.6-1.393-2.646-1.189z"></path>
</symbol>
<symbol id="icon-close-modal-r" viewBox="0 0 32 32">
<path d="M7.501 6.727c-0.322 0.196-0.585 0.461-0.772 0.776l-0.006 0.010c-0.069 0.144-0.109 0.312-0.109 0.49 0 0.179 0.041 0.348 0.114 0.5l-0.003-0.007c0.075 0.149 1.313 1.427 3.745 3.864l3.635 3.64-3.635 3.64c-2.432 2.437-3.671 3.715-3.745 3.864-0.235 0.469-0.113 0.977 0.34 1.431s0.961 0.575 1.431 0.34c0.149-0.075 1.427-1.313 3.864-3.745l3.64-3.635 3.64 3.635c2.437 2.432 3.715 3.671 3.864 3.745 0.469 0.235 0.977 0.113 1.431-0.34s0.575-0.961 0.34-1.431c-0.075-0.149-1.313-1.427-3.745-3.864l-3.635-3.64 3.635-3.64c2.432-2.437 3.671-3.715 3.745-3.864 0.235-0.469 0.113-0.977-0.34-1.431s-0.961-0.575-1.431-0.34c-0.149 0.075-1.427 1.313-3.864 3.745l-3.64 3.635-3.64-3.635c-2.437-2.432-3.715-3.671-3.864-3.745-0.145-0.069-0.316-0.109-0.496-0.109-0.181 0-0.353 0.041-0.506 0.114l0.007-0.003z"></path>
</symbol>
</defs>
</svg>
